HIERARCHY
ROOT root
{
	OFFSET 0.000000 0.000000 0.000000
	CHANNELS 6 Xposition Yposition Zposition Zrotation Yrotation Xrotation
	JOINT lhip
	{
		OFFSET 0.058581 -0.082280 -0.017664
		CHANNELS 3 Zrotation Yrotation Xrotation
		JOINT lknee
		{
			OFFSET 0.043451 -0.386469 0.008037
			CHANNELS 3 Zrotation Yrotation Xrotation
			JOINT lankle
			{
				OFFSET -0.014790 -0.426874 -0.037428
				CHANNELS 3 Zrotation Yrotation Xrotation
				JOINT ltoe
				{
					OFFSET 0.041054 -0.060286 0.122042
					CHANNELS 3 Zrotation Yrotation Xrotation
					End Site
					{
						OFFSET 0.000000 0.000000 0.000000
					}
				}
			}
		}
	}
	JOINT rhip
	{
		OFFSET -0.060310 -0.090513 -0.013543
		CHANNELS 3 Zrotation Yrotation Xrotation
		JOINT rknee
		{
			OFFSET -0.043257 -0.383688 -0.004843
			CHANNELS 3 Zrotation Yrotation Xrotation
			JOINT rankle
			{
				OFFSET 0.019056 -0.420046 -0.034562
				CHANNELS 3 Zrotation Yrotation Xrotation
				JOINT rtoe
				{
					OFFSET -0.034840 -0.062106 0.130323
					CHANNELS 3 Zrotation Yrotation Xrotation
					End Site
					{
						OFFSET 0.000000 0.000000 0.000000
					}
				}
			}
		}
	}
	JOINT lowerback
	{
		OFFSET 0.004439 0.124404 -0.038385
		CHANNELS 3 Zrotation Yrotation Xrotation
		JOINT upperback
		{
			OFFSET 0.004488 0.137956 0.026820
			CHANNELS 3 Zrotation Yrotation Xrotation
			JOINT chest
			{
				OFFSET -0.002265 0.056032 0.002855
				CHANNELS 3 Zrotation Yrotation Xrotation
				JOINT lowerneck
				{
					OFFSET -0.013390 0.211636 -0.033468
					CHANNELS 3 Zrotation Yrotation Xrotation
					JOINT upperneck
					{
						OFFSET 0.010113 0.088937 0.050410
						CHANNELS 3 Zrotation Yrotation Xrotation
						End Site
						{
							OFFSET 0.000000 0.000000 0.000000
						}
					}
				}
				JOINT lclavicle
				{
					OFFSET 0.071702 0.114000 -0.018898
					CHANNELS 3 Zrotation Yrotation Xrotation
					JOINT lshoulder
					{
						OFFSET 0.122921 0.045205 -0.019046
						CHANNELS 3 Zrotation Yrotation Xrotation
						JOINT lelbow
						{
							OFFSET 0.255332 -0.015649 -0.022946
							CHANNELS 3 Zrotation Yrotation Xrotation
							JOINT lwrist
							{
								OFFSET 0.265709 0.012698 -0.007375
								CHANNELS 3 Zrotation Yrotation Xrotation
								End Site
								{
									OFFSET 0.000000 0.000000 0.000000
								}
							}
						}
					}
				}
				JOINT rclavicle
				{
					OFFSET -0.082954 0.112472 -0.023707
					CHANNELS 3 Zrotation Yrotation Xrotation
					JOINT rshoulder
					{
						OFFSET -0.113228 0.046853 -0.008472
						CHANNELS 3 Zrotation Yrotation Xrotation
						JOINT relbow
						{
							OFFSET -0.260127 -0.014369 -0.031269
							CHANNELS 3 Zrotation Yrotation Xrotation
							JOINT rwrist
							{
								OFFSET -0.269108 0.006794 -0.006027
								CHANNELS 3 Zrotation Yrotation Xrotation
								End Site
								{
									OFFSET 0.000000 0.000000 0.000000
								}
							}
						}
					}
				}
			}
		}
	}
}
MOTION
Frames: 14
Frame Time: 0.033333
0.032948 -0.875367 0.909073 168.232271 6.505483 100.512449 -0.773842 -0.086313 2.154488 -13.938925 -13.993578 37.862893 6.810023 10.579657 -26.778205 0.000000 -0.000000 0.000000 -12.278604 1.242195 -45.348255 1.775716 -8.131503 68.009174 1.637704 -8.992473 -15.217706 0.000000 -0.000000 0.000000 3.884030 -9.011686 17.040583 3.793494 -2.323036 -0.116608 -1.770619 -5.787914 4.999304 0.969885 7.481920 -7.423577 -4.223537 13.215486 -3.631524 -27.787143 -2.200660 3.210779 -42.090481 0.721282 8.627117 20.716893 -71.359312 -8.382442 30.327328 -9.068892 -3.044478 22.290662 0.066679 0.523027 67.252456 -4.542847 18.010687 -114.143659 62.405480 -113.011242 -19.795448 -0.394712 -40.422788 
0.068961 -0.813701 0.886572 170.098094 7.795071 101.255694 2.834421 0.947610 9.135620 -12.356546 -17.115369 33.393754 5.601736 9.533582 -28.362584 0.000000 -0.000000 0.000000 -15.440139 -2.129512 -50.519730 1.549012 -11.373711 57.487659 4.516692 -7.134049 -12.747115 0.000000 -0.000000 0.000000 5.195242 -12.055151 16.537749 4.610053 -3.787502 -0.515580 -1.107522 -7.762308 4.858994 0.006625 11.200086 -8.337824 -5.752926 17.456116 -3.385966 -25.524190 -4.197318 2.156391 -44.651044 -6.628744 6.454000 34.548608 -70.753915 -21.727935 32.776573 -10.399171 -0.675305 21.048745 0.147904 -0.561926 68.182014 -2.366083 20.445763 -125.077924 61.768638 -118.139077 -19.854930 1.969736 -31.109425 
0.102735 -0.743716 0.862681 170.468633 9.118438 102.404015 4.755195 1.707513 14.792718 -9.681820 -17.411416 30.104403 4.641979 9.722349 -25.448390 0.000000 -0.000000 0.000000 -17.796516 -4.497578 -52.236717 2.526269 -14.095116 49.507388 7.424144 -5.537273 -9.105437 0.000000 -0.000000 0.000000 7.646188 -14.617733 14.952521 5.492786 -4.704708 -0.786456 -0.711864 -9.012912 4.238179 -1.038034 13.975171 -7.980116 -8.719043 22.933754 -3.777141 -23.731738 -4.366359 2.403197 -47.419379 -7.931678 6.265735 35.997782 -71.417526 -21.085133 34.043460 -11.279283 0.036630 19.340725 1.070948 -1.951102 69.411027 2.584757 22.923305 -132.793546 60.834414 -120.436822 -16.555124 5.623576 -20.122487 
0.135554 -0.669255 0.837988 169.219688 10.082721 103.039877 4.622861 2.769926 16.168504 -8.298858 -13.053433 34.619637 4.843840 10.544544 -19.069786 0.000000 -0.000000 0.000000 -19.080692 -6.013848 -52.200115 3.279534 -15.716835 51.971946 6.094442 -4.269355 -11.861951 0.000000 -0.000000 0.000000 10.215857 -15.484783 13.557984 6.391647 -4.633475 -0.248191 -0.713202 -8.922669 3.299583 -1.051738 15.528926 -7.486128 -12.182858 26.975772 -4.888635 -23.660563 -4.284382 3.888457 -50.662083 -3.395197 7.253245 23.967868 -72.462295 -5.154872 32.363970 -11.365582 0.554750 18.630999 4.159723 -2.848739 70.146175 9.231373 25.409678 -141.977356 60.531868 -124.218378 -12.445856 8.818118 -9.163883 
0.163586 -0.597557 0.817102 166.967220 10.958118 101.830164 3.312791 4.263800 12.304423 -8.666130 -6.790892 48.987098 5.589361 10.803802 -16.135371 0.000000 -0.000000 0.000000 -18.881814 -6.680822 -50.239996 4.253039 -15.950411 59.490396 3.200778 -2.695277 -19.390669 0.000000 -0.000000 0.000000 12.231450 -14.512792 16.535138 6.729440 -3.313433 0.759103 -0.488224 -7.048876 1.623762 -1.106322 14.344317 -8.805046 -14.431422 28.325507 -7.909184 -25.876673 -5.999565 5.670515 -54.321308 3.859109 8.434354 8.355948 -68.545116 11.256369 31.479723 -9.144313 -0.802984 19.369369 10.719190 -2.862810 66.174840 16.055534 26.481761 -152.561432 61.480303 -130.220135 -10.407153 11.936860 4.160227 
0.184928 -0.530799 0.803336 164.375008 11.244969 99.131136 1.327727 5.183593 3.419758 -7.777395 1.106763 68.403559 5.493385 11.429769 -17.600755 0.000000 -0.000000 0.000000 -17.919273 -6.974511 -45.767170 4.798522 -13.708686 64.532750 1.316345 -1.754021 -26.154130 0.000000 -0.000000 0.000000 13.405504 -12.122488 23.730119 5.364459 -1.009957 1.804017 -0.119877 -3.503787 -0.580456 -1.939757 10.114906 -11.903112 -13.868436 27.462304 -11.916875 -29.520088 -9.033127 6.706704 -56.531705 11.761912 8.250632 0.177631 -59.270381 17.039290 30.413588 -7.573037 -0.820214 19.835454 19.043103 -1.069131 55.950554 20.292681 22.582955 -159.118222 64.904658 -135.388459 -9.481613 14.590541 15.599501 
0.202639 -0.467217 0.794781 162.956334 10.212966 97.115498 -0.108864 4.680535 -10.757812 -5.834090 8.067956 86.786045 5.762509 10.845565 -20.802566 0.000000 -0.000000 0.000000 -17.838099 -8.407581 -40.283589 5.821596 -9.396645 66.859313 1.118242 -1.489387 -31.441477 0.000000 -0.000000 0.000000 13.525833 -8.169753 31.127975 2.928567 1.686535 0.977353 -0.045790 0.070068 -1.382935 -2.572390 4.876539 -14.310577 -11.579180 24.699595 -15.028049 -32.498611 -9.817831 7.272452 -54.650656 18.294996 7.339305 -6.182183 -49.638142 19.586926 31.001521 -7.622093 0.837086 20.417966 23.869635 1.286982 43.234640 20.819085 15.205900 -149.479030 75.596167 -129.340354 -13.900446 19.015305 22.693839 
0.216680 -0.402810 0.790749 162.618539 8.814424 95.796840 0.201012 3.356712 -28.004587 -5.184203 14.052856 98.715902 6.604606 10.136256 -23.681719 0.000000 -0.000000 0.000000 -19.229494 -10.643066 -33.898297 7.940861 -5.298315 67.049831 2.077619 -1.143883 -34.519587 0.000000 -0.000000 0.000000 13.193390 -3.079751 36.244675 1.041161 3.712565 -0.031582 -0.272787 2.903425 -0.636337 -3.067107 1.794376 -14.678631 -10.092568 20.350476 -16.726520 -33.957385 -7.676671 8.037233 -47.973987 23.250306 8.151227 -13.269105 -45.947243 24.205040 32.684502 -7.898313 -0.031952 22.566749 25.479656 3.360550 30.805315 21.432435 7.252304 -33.103818 76.919545 -18.340790 -19.267649 24.224955 28.018748 
0.226848 -0.332614 0.792811 162.447746 7.974988 94.390378 2.623525 3.297854 -44.129645 -3.389722 19.437997 101.594272 8.236991 11.425178 -25.466912 0.000000 -0.000000 0.000000 -21.279009 -12.695157 -25.698972 10.969207 -0.504405 64.903566 3.818338 0.199588 -35.023820 0.000000 -0.000000 0.000000 12.507256 2.650520 38.869715 0.342348 5.040771 0.733011 -0.072426 5.284148 0.212135 -3.711605 0.599184 -13.273515 -9.092134 16.101875 -15.444135 -32.867684 -5.501499 8.931769 -41.590849 26.499283 11.465773 -21.648026 -46.909401 32.363557 33.621185 -6.618404 -3.862738 24.354723 27.603418 5.479232 21.141144 23.342605 -0.140051 -11.800129 45.875628 -4.914103 -19.061160 23.352619 33.399476 
0.233088 -0.252048 0.802752 163.527806 7.989313 94.134224 5.117714 4.962981 -56.770257 -1.657694 23.984206 95.478569 9.775618 11.527452 -25.973772 0.000000 -0.000000 0.000000 -23.216375 -13.782581 -15.379683 12.970615 4.846863 58.767411 6.662763 2.747788 -32.142309 0.000000 -0.000000 0.000000 11.455991 8.346804 39.160951 0.700049 5.427623 2.293427 0.698382 6.783477 0.512063 -3.613275 -0.104474 -12.597480 -7.241512 12.819938 -12.466892 -31.351286 -4.228185 9.829806 -39.080670 28.929004 14.464833 -28.512859 -50.010604 38.348438 33.311735 -4.487901 -8.029952 26.022577 28.042829 6.381788 16.923124 23.913826 -7.836915 -11.702583 23.182047 -23.362366 -17.235631 17.075341 27.892509 
0.236560 -0.161017 0.818807 167.638665 8.528482 96.331508 4.944748 6.005193 -64.605834 -2.138061 28.277359 81.880536 10.247410 8.474661 -24.505553 0.000000 -0.000000 0.000000 -23.692475 -12.939535 -3.828569 11.402830 8.703470 48.034507 11.334110 6.509703 -23.333332 0.000000 -0.000000 0.000000 9.501093 12.594816 36.432798 1.808942 3.147473 3.737142 1.407003 6.203810 0.898160 -2.627185 0.369606 -12.298103 -4.925631 11.921546 -12.303185 -31.060638 -2.244197 11.169118 -42.733995 31.015632 13.000809 -29.516923 -54.988724 37.815976 33.309907 -2.508683 -11.315816 27.374577 23.301586 4.930153 22.375020 23.141405 -10.063173 -20.791258 27.604226 -43.416982 -17.025672 11.930114 10.384144 
0.238894 -0.061684 0.835699 173.720283 9.457478 99.087669 2.220299 5.660939 -65.424636 -3.490548 32.087616 66.751770 10.160411 6.469141 -21.294446 0.000000 -0.000000 0.000000 -20.393297 -10.564249 6.611029 6.810789 10.428237 37.293071 15.776143 7.560288 -8.449164 0.000000 -0.000000 0.000000 6.923710 13.365535 32.887199 2.359595 -0.494358 4.150142 2.123857 4.361535 2.035823 -2.375110 0.297409 -11.682648 -2.808691 14.481531 -13.067628 -31.363970 -0.037036 11.931055 -51.007138 30.910919 8.677738 -24.041862 -59.430715 29.922154 34.261127 -1.004630 -13.327886 27.162951 17.904382 3.308868 33.094773 20.961194 -3.721149 -32.009082 40.371661 -49.948675 -19.480547 12.174213 2.426061 
0.238289 0.041926 0.844982 179.678012 10.497203 101.551622 -1.052067 4.468247 -60.777619 -5.035795 33.928272 56.077951 10.802800 6.053174 -18.398273 0.000000 -0.000000 0.000000 -15.086940 -8.336279 11.306267 3.948261 8.250437 36.385846 15.333387 5.592085 -0.889482 0.000000 -0.000000 0.000000 5.010161 11.334625 29.692516 1.999297 -3.132006 3.518661 1.731254 2.303877 3.512129 -2.197247 0.735617 -10.276153 -1.756342 17.720722 -13.632996 -32.143512 1.930562 11.117873 -57.644989 27.916950 5.191675 -13.395167 -62.692723 17.489064 33.902536 -0.061415 -15.730163 26.032847 12.205597 1.776703 45.278436 16.026675 4.488449 -47.283536 52.557464 -57.238684 -25.100307 13.063343 -3.451672 
0.232817 0.145500 0.845637 -175.607079 11.398487 103.892282 -3.767269 2.639080 -52.885054 -8.136973 31.085850 49.400750 15.599413 7.693044 -20.768596 0.000000 -0.000000 0.000000 -12.056552 -7.436267 8.851096 4.302991 2.083017 47.408665 12.346638 3.465562 -2.077173 0.000000 -0.000000 0.000000 4.262850 8.151143 26.743395 1.071617 -4.381362 2.755444 0.124444 0.518634 4.502881 -1.888417 1.565731 -8.810779 -1.751065 21.102974 -15.019094 -34.230260 2.979310 8.926870 -60.030158 22.609924 3.117080 1.941562 -63.856508 0.813572 35.100210 -0.074573 -14.534429 25.386366 5.788702 0.444950 56.127093 8.205308 8.782466 -73.282251 60.009824 -77.630980 -27.054641 12.338429 -11.368911 
